<svg xmlns="http://www.w3.org/2000/svg" width="70.098" height="57.923" viewBox="0 0 70.098 57.923">
  <g id="Amimation_watering" transform="translate(-169 -28.262)">
    <g id="drop" transform="translate(188.001 28.262)">
      <path id="Path_4" data-name="Path 4" d="M63.179,16.852a.21.21,0,0,0-.01-.023L54.5.113a.209.209,0,0,0-.371,0L45.451,16.829a.189.189,0,0,0-.01.023,9.779,9.779,0,0,0,8.862,13.2h.013a9.779,9.779,0,0,0,8.862-13.2Z" transform="translate(-44.818)" fill="#68ccea"/>
      <g id="Group_5" data-name="Group 5" transform="translate(0 0.248)">
        <path id="Path_5" data-name="Path 5" d="M54.979,31.389a10.856,10.856,0,0,1-3.257-7.7.22.22,0,0,1,0-.028L54.054,3.266l-8.6,16.581a.189.189,0,0,0-.01.023,9.779,9.779,0,0,0,8.862,13.2h.013a9.756,9.756,0,0,0,2.3-.347A11.049,11.049,0,0,1,54.979,31.389Z" transform="translate(-44.818 -3.266)" fill="#5abce2"/>
        <path id="Path_6" data-name="Path 6" d="M350.5,178.907a.229.229,0,0,0-.01-.023l-4.276-8.242a.209.209,0,0,0-.371,0l-4.276,8.242a.19.19,0,0,0-.01.023,4.928,4.928,0,0,0,4.466,6.65h.013a4.928,4.928,0,0,0,4.466-6.65Z" transform="translate(-318.72 -157.818)" fill="#5abce2"/>
      </g>
      <path id="Path_7" data-name="Path 7" d="M388.1,178.907a.216.216,0,0,0-.01-.023l-4.276-8.242a.209.209,0,0,0-.186-.113h0l-1.683,9.789a.212.212,0,0,0,0,.028,5.44,5.44,0,0,0,2.832,5.041c.147-.04.292-.086.436-.139A4.934,4.934,0,0,0,388.1,178.907Z" transform="translate(-356.317 -157.57)" fill="#68ccea"/>
      <path id="Path_8" data-name="Path 8" d="M274.395,383.993l-2.849-5.492a.209.209,0,0,0-.371,0l-2.85,5.492a.193.193,0,0,0-.01.023,3.354,3.354,0,0,0,3.039,4.525h.013a3.354,3.354,0,0,0,3.039-4.525A.205.205,0,0,0,274.395,383.993Z" transform="translate(-251.134 -349.633)" fill="#5abce2"/>
      <path id="Path_9" data-name="Path 9" d="M298.923,384.016a.2.2,0,0,0-.01-.023l-2.849-5.492a.209.209,0,0,0-.186-.113.2.2,0,0,0-.064.011l-1.17,6.882a.239.239,0,0,0,0,.028,3.787,3.787,0,0,0,1.518,3.212,3.353,3.353,0,0,0,2.765-4.506Z" transform="translate(-275.652 -349.633)" fill="#68ccea"/>
    </g>
    <g id="Group_43" data-name="Group 43">
      <g id="drop-2" data-name="drop" transform="translate(207.001 47.276)">
        <path id="Path_4-2" data-name="Path 4" d="M63.179,16.852a.21.21,0,0,0-.01-.023L54.5.113a.209.209,0,0,0-.371,0L45.451,16.829a.189.189,0,0,0-.01.023,9.779,9.779,0,0,0,8.862,13.2h.013a9.779,9.779,0,0,0,8.862-13.2Z" transform="translate(-44.818)" fill="#68ccea"/>
        <g id="Group_5-2" data-name="Group 5" transform="translate(0 0.248)">
          <path id="Path_5-2" data-name="Path 5" d="M54.979,31.389a10.856,10.856,0,0,1-3.257-7.7.22.22,0,0,1,0-.028L54.054,3.266l-8.6,16.581a.189.189,0,0,0-.01.023,9.779,9.779,0,0,0,8.862,13.2h.013a9.756,9.756,0,0,0,2.3-.347A11.049,11.049,0,0,1,54.979,31.389Z" transform="translate(-44.818 -3.266)" fill="#5abce2"/>
          <path id="Path_6-2" data-name="Path 6" d="M350.5,178.907a.229.229,0,0,0-.01-.023l-4.276-8.242a.209.209,0,0,0-.371,0l-4.276,8.242a.19.19,0,0,0-.01.023,4.928,4.928,0,0,0,4.466,6.65h.013a4.928,4.928,0,0,0,4.466-6.65Z" transform="translate(-318.72 -157.818)" fill="#5abce2"/>
        </g>
        <path id="Path_7-2" data-name="Path 7" d="M388.1,178.907a.216.216,0,0,0-.01-.023l-4.276-8.242a.209.209,0,0,0-.186-.113h0l-1.683,9.789a.212.212,0,0,0,0,.028,5.44,5.44,0,0,0,2.832,5.041c.147-.04.292-.086.436-.139A4.934,4.934,0,0,0,388.1,178.907Z" transform="translate(-356.317 -157.57)" fill="#68ccea"/>
        <path id="Path_8-2" data-name="Path 8" d="M274.395,383.993l-2.849-5.492a.209.209,0,0,0-.371,0l-2.85,5.492a.193.193,0,0,0-.01.023,3.354,3.354,0,0,0,3.039,4.525h.013a3.354,3.354,0,0,0,3.039-4.525A.205.205,0,0,0,274.395,383.993Z" transform="translate(-251.134 -349.633)" fill="#5abce2"/>
        <path id="Path_9-2" data-name="Path 9" d="M298.923,384.016a.2.2,0,0,0-.01-.023l-2.849-5.492a.209.209,0,0,0-.186-.113.2.2,0,0,0-.064.011l-1.17,6.882a.239.239,0,0,0,0,.028,3.787,3.787,0,0,0,1.518,3.212,3.353,3.353,0,0,0,2.765-4.506Z" transform="translate(-275.652 -349.633)" fill="#68ccea"/>
      </g>
    </g>
    <g id="drop-3" data-name="drop" transform="translate(169 47.276)">
      <path id="Path_4-3" data-name="Path 4" d="M63.179,16.852a.21.21,0,0,0-.01-.023L54.5.113a.209.209,0,0,0-.371,0L45.451,16.829a.189.189,0,0,0-.01.023,9.779,9.779,0,0,0,8.862,13.2h.013a9.779,9.779,0,0,0,8.862-13.2Z" transform="translate(-44.818)" fill="#68ccea"/>
      <g id="Group_5-3" data-name="Group 5" transform="translate(0 0.248)">
        <path id="Path_5-3" data-name="Path 5" d="M54.979,31.389a10.856,10.856,0,0,1-3.257-7.7.22.22,0,0,1,0-.028L54.054,3.266l-8.6,16.581a.189.189,0,0,0-.01.023,9.779,9.779,0,0,0,8.862,13.2h.013a9.756,9.756,0,0,0,2.3-.347A11.049,11.049,0,0,1,54.979,31.389Z" transform="translate(-44.818 -3.266)" fill="#5abce2"/>
        <path id="Path_6-3" data-name="Path 6" d="M350.5,178.907a.229.229,0,0,0-.01-.023l-4.276-8.242a.209.209,0,0,0-.371,0l-4.276,8.242a.19.19,0,0,0-.01.023,4.928,4.928,0,0,0,4.466,6.65h.013a4.928,4.928,0,0,0,4.466-6.65Z" transform="translate(-318.72 -157.818)" fill="#5abce2"/>
      </g>
      <path id="Path_7-3" data-name="Path 7" d="M388.1,178.907a.216.216,0,0,0-.01-.023l-4.276-8.242a.209.209,0,0,0-.186-.113h0l-1.683,9.789a.212.212,0,0,0,0,.028,5.44,5.44,0,0,0,2.832,5.041c.147-.04.292-.086.436-.139A4.934,4.934,0,0,0,388.1,178.907Z" transform="translate(-356.317 -157.57)" fill="#68ccea"/>
      <path id="Path_8-3" data-name="Path 8" d="M274.395,383.993l-2.849-5.492a.209.209,0,0,0-.371,0l-2.85,5.492a.193.193,0,0,0-.01.023,3.354,3.354,0,0,0,3.039,4.525h.013a3.354,3.354,0,0,0,3.039-4.525A.205.205,0,0,0,274.395,383.993Z" transform="translate(-251.134 -349.633)" fill="#5abce2"/>
      <path id="Path_9-3" data-name="Path 9" d="M298.923,384.016a.2.2,0,0,0-.01-.023l-2.849-5.492a.209.209,0,0,0-.186-.113.2.2,0,0,0-.064.011l-1.17,6.882a.239.239,0,0,0,0,.028,3.787,3.787,0,0,0,1.518,3.212,3.353,3.353,0,0,0,2.765-4.506Z" transform="translate(-275.652 -349.633)" fill="#68ccea"/>
    </g>
  </g>
</svg>
